<svg width="109" height="108" viewBox="0 0 109 108" fill="none" xmlns="http://www.w3.org/2000/svg">
<path d="M53.998 36L53.998 70.0759" stroke="white" stroke-width="2" stroke-linecap="round"/>
<path d="M69 58.0254L54 70.9998L39 58.0254" stroke="white" stroke-width="2" stroke-linecap="round"/>
<path d="M46.2568 102.476L48.0309 102.189L47.1007 100.486L47.5644 100.182L48.5195 101.904L49.845 100.436L50.2415 100.851L48.9191 102.292L50.6069 102.981L50.3681 103.496L48.7053 102.826L48.5002 104.591L47.9276 104.525L48.1328 102.759L46.3605 103.031L46.2568 102.476Z" fill="white"/>
<path d="M40.1527 94.5366C40.9134 94.7981 41.4669 95.2372 41.8131 95.8537C42.1547 96.4725 42.2082 97.1232 41.9734 97.8058L41.1992 97.5395C41.3627 97.0641 41.3221 96.6134 41.0774 96.1875C40.8316 95.765 40.4387 95.4608 39.8987 95.2752C39.3894 95.1 38.9256 95.0791 38.5076 95.2126C38.0884 95.3494 37.8116 95.6131 37.6773 96.0036C37.6072 96.2074 37.5861 96.4014 37.6139 96.5856C37.6382 96.7687 37.7037 96.9317 37.8102 97.0747C37.9134 97.2165 38.0432 97.358 38.1997 97.4991C38.3517 97.6425 38.523 97.7736 38.7138 97.8924C38.9012 98.01 39.0931 98.1368 39.2894 98.2726C39.4857 98.4085 39.6775 98.5409 39.8648 98.6699C40.0476 98.8011 40.2131 98.9491 40.3615 99.1141C40.5064 99.2779 40.6263 99.4482 40.7212 99.6251C40.8126 99.8009 40.8641 100.005 40.8755 100.236C40.8835 100.467 40.8432 100.711 40.7544 100.969C40.5605 101.533 40.1753 101.919 39.5987 102.127C39.0175 102.337 38.3805 102.323 37.6878 102.085C36.9441 101.829 36.4227 101.424 36.1236 100.869C35.8233 100.318 35.7777 99.7384 35.9867 99.1305L36.7865 99.4056C36.6656 99.8121 36.7143 100.195 36.9323 100.555C37.1458 100.917 37.4902 101.18 37.9656 101.343C38.4411 101.507 38.8662 101.53 39.2409 101.412C39.6123 101.293 39.8587 101.056 39.9801 100.703C40.0502 100.499 40.0617 100.306 40.0146 100.123C39.9675 99.9394 39.8776 99.7756 39.745 99.6312C39.609 99.4857 39.4457 99.3422 39.2551 99.2007C39.0633 99.0626 38.8585 98.9238 38.6407 98.7843C38.4216 98.6482 38.206 98.5077 37.9939 98.3626C37.7784 98.2163 37.5818 98.0537 37.404 97.8749C37.2263 97.696 37.081 97.5056 36.9682 97.3035C36.8509 97.1036 36.7839 96.8679 36.7671 96.5963C36.7492 96.3282 36.7928 96.0412 36.8979 95.7356C37.1046 95.1345 37.5163 94.7217 38.1328 94.497C38.7459 94.2711 39.4192 94.2843 40.1527 94.5366Z" fill="white"/>
<path d="M30.417 89.7604C31.0097 90.1532 31.4552 90.6575 31.7537 91.2732C32.0472 91.8899 32.166 92.546 32.1101 93.2413C32.0542 93.9367 31.8219 94.5927 31.4132 95.2093C31.1096 95.6672 30.7406 96.0452 30.3062 96.3432C29.8687 96.6392 29.4116 96.8381 28.9348 96.94C28.456 97.0449 27.9635 97.0502 27.4572 96.9559C26.949 96.8646 26.4734 96.6722 26.0304 96.3786C25.318 95.9064 24.8238 95.2837 24.5478 94.5106C24.2699 93.7404 24.2799 92.9974 24.5777 92.2815L25.341 92.7874C25.1681 93.3147 25.1885 93.8495 25.4021 94.3918C25.6107 94.935 25.968 95.3743 26.4738 95.7096C26.9318 96.0131 27.4273 96.1756 27.9602 96.1971C28.4911 96.2216 28.9998 96.1042 29.4861 95.8449C29.9705 95.5886 30.3734 95.218 30.6948 94.7331C31.0201 94.2422 31.2085 93.7208 31.2598 93.1689C31.3111 92.617 31.224 92.0983 30.9986 91.6129C30.7732 91.1274 30.4315 90.7329 29.9736 90.4294C29.4527 90.0842 28.8975 89.9273 28.308 89.9588C27.7154 89.9883 27.2056 90.2018 26.7784 90.5993L26.0061 90.0875C26.5882 89.5082 27.289 89.1886 28.1086 89.1287C28.9231 89.0697 29.6926 89.2803 30.417 89.7604Z" fill="white"/>
<path d="M20.0711 80.4922L20.7439 81.2419L19.7251 85.0585L20.7433 86.193L23.2048 83.984L23.7553 84.5974L18.0063 89.7566L16.1427 87.6799C15.7134 87.2015 15.5087 86.659 15.5288 86.0523C15.5438 85.4453 15.7825 84.9344 16.2449 84.5194C16.6779 84.1309 17.1517 83.9276 17.6663 83.9096C18.1759 83.8914 18.649 84.0556 19.0854 84.4021L20.0711 80.4922ZM18.0492 88.6107L20.1499 86.7255L18.8511 85.2783C18.5681 84.9629 18.234 84.7922 17.8489 84.7663C17.4638 84.7404 17.1162 84.8666 16.8061 85.1448C16.5068 85.4134 16.3519 85.7382 16.3415 86.1191C16.3287 86.4973 16.465 86.8454 16.7504 87.1635L18.0492 88.6107Z" fill="white"/>
<path d="M9.8958 78.5894C9.49293 78.256 9.16694 77.8484 8.91783 77.3668C8.66872 76.8851 8.52455 76.3836 8.4853 75.8621C8.44287 75.3423 8.49876 74.8485 8.65299 74.3806C8.80402 73.9144 9.05025 73.4797 9.39167 73.0768C9.7331 72.6738 10.1478 72.3461 10.6359 72.0937C11.2929 71.7539 11.971 71.5952 12.67 71.6178C13.3689 71.6404 14.0117 71.8356 14.5981 72.2034C15.1814 72.5729 15.6388 73.0782 15.9704 73.7193C16.302 74.3605 16.45 75.0258 16.4144 75.7153C16.3757 76.4065 16.1636 77.0438 15.778 77.6273C15.3925 78.2108 14.8712 78.6724 14.2141 79.0122C13.726 79.2646 13.2189 79.4137 12.6927 79.4594C12.1666 79.5052 11.6696 79.4549 11.2018 79.3087C10.7308 79.1642 10.2955 78.9244 9.8958 78.5894ZM9.29917 75.8293C9.3272 76.2353 9.43772 76.6249 9.63074 76.9981C9.82376 77.3713 10.0786 77.6882 10.3954 77.9489C10.7105 78.2064 11.0543 78.3904 11.4269 78.501C11.7962 78.6132 12.191 78.6496 12.6113 78.6101C13.0267 78.5691 13.429 78.448 13.8181 78.2467C14.3413 77.9762 14.7587 77.6107 15.0704 77.1503C15.3821 76.6899 15.556 76.1896 15.592 75.6495C15.6263 75.1061 15.5148 74.5856 15.2575 74.088C15.0001 73.5904 14.6406 73.2002 14.179 72.9174C13.7158 72.6315 13.2062 72.4826 12.6503 72.4709C12.0944 72.4592 11.5549 72.5887 11.0318 72.8592C10.6426 73.0605 10.3121 73.3204 10.0402 73.6389C9.76346 73.9559 9.56414 74.2975 9.44226 74.6637C9.31718 75.0316 9.26949 75.4202 9.29917 75.8293Z" fill="white"/>
<path d="M5.18322 67.7661L4.99459 66.9638L11.7432 65.3772L10.8494 61.5755L11.6202 61.3943L12.7027 65.9982L5.18322 67.7661Z" fill="white"/>
<path d="M3.36921 57.005L3.35658 56.1809L10.2884 56.0747L10.2285 52.1698L11.0203 52.1577L11.0928 56.8866L3.36921 57.005Z" fill="white"/>
<path d="M6.30223 36.8722C6.48916 36.3785 6.75596 35.9477 7.10263 35.5798C7.44721 35.2072 7.83711 34.9229 8.27234 34.7267C8.70421 34.5293 9.17781 34.4245 9.69315 34.4122C10.2064 34.3954 10.7183 34.4836 11.2287 34.6769C11.7392 34.8701 12.1862 35.145 12.5696 35.5014C12.951 35.8531 13.2431 36.2479 13.446 36.6856C13.6455 37.1221 13.756 37.596 13.7775 38.1071C13.7969 38.6137 13.7131 39.1138 13.5262 39.6075L12.6793 41.8442L5.45532 39.1089L6.30223 36.8722ZM12.8009 39.2868C13.0934 38.5143 13.0615 37.7669 12.7053 37.0445C12.347 36.3175 11.7531 35.797 10.9236 35.4829C10.1007 35.1713 9.32506 35.1714 8.59651 35.483C7.86923 35.7913 7.35808 36.3351 7.06306 37.1142L6.49273 38.6205L12.2306 40.793L12.8009 39.2868Z" fill="white"/>
<path d="M12.3242 25.484C12.443 24.9747 12.6625 24.5013 12.9826 24.0636C13.3027 23.6259 13.6874 23.2732 14.1367 23.0057C14.583 22.7359 15.05 22.5658 15.5376 22.4953C16.0223 22.4227 16.5211 22.4493 17.034 22.5753C17.5469 22.7013 18.0252 22.9264 18.4687 23.2508C19.0658 23.6875 19.51 24.2237 19.8014 24.8594C20.0928 25.4952 20.2046 26.1575 20.1368 26.8464C20.066 27.5332 19.8176 28.1679 19.3915 28.7506C18.9654 29.3332 18.4358 29.7623 17.8028 30.0378C17.1668 30.3113 16.5017 30.4055 15.8076 30.3205C15.1134 30.2355 14.4678 29.9746 13.8706 29.5379C13.4271 29.2136 13.0676 28.8261 12.7921 28.3755C12.5166 27.9249 12.3401 27.4576 12.2624 26.9737C12.1818 26.4877 12.2024 25.9911 12.3242 25.484ZM14.5288 23.7195C14.1779 23.9256 13.8784 24.1982 13.6304 24.5374C13.3824 24.8765 13.2123 25.2459 13.1202 25.6457C13.0301 26.0426 13.0187 26.4324 13.0858 26.8151C13.15 27.1957 13.2934 27.5653 13.5161 27.9239C13.738 28.2775 14.0258 28.5836 14.3794 28.8423C14.8548 29.1899 15.368 29.4006 15.9191 29.4744C16.4702 29.5482 16.9955 29.4808 17.4951 29.2723C17.9968 29.0608 18.413 28.729 18.7437 28.2768C19.0744 27.8246 19.2634 27.3289 19.3108 26.7896C19.3603 26.2474 19.2663 25.7249 19.029 25.2221C18.7916 24.7193 18.4353 24.2941 17.9599 23.9464C17.6062 23.6878 17.2263 23.5078 16.8199 23.4064C16.4128 23.3 16.0182 23.2739 15.636 23.328C15.2509 23.3801 14.8818 23.5106 14.5288 23.7195Z" fill="white"/>
<path d="M27.5512 10.5666L28.2644 10.0452L30.7323 17.8098L30.1452 18.239L24.6682 14.2896L26.7667 20.7094L26.1797 21.1387L19.5114 16.4454L20.2332 15.9176L25.7146 19.8638L23.6161 13.444L24.2118 13.0084L29.6735 16.9824L27.5512 10.5666Z" fill="white"/>
<path d="M34.4398 7.14259L35.1785 6.8887L41.2845 11.3459L39.2691 5.48263L40.0637 5.20948L42.5747 12.5144L41.8412 12.7666L35.7183 8.32651L37.7302 14.1796L36.9508 14.4475L34.4398 7.14259Z" fill="white"/>
<path d="M51.1817 4.98704L49.5102 5.64756L50.7833 7.11134L50.3954 7.50761L49.0939 6.03043L48.1133 7.74763L47.6372 7.42731L48.6205 5.73691L46.8243 5.42465L46.9473 4.87092L48.7151 5.16979L48.5375 3.40109L49.111 3.3435L49.2886 5.11219L50.9617 4.46776L51.1817 4.98704Z" fill="white"/>
<path d="M60.9843 5.40574L59.2148 5.72068L60.1714 7.40839L59.7124 7.71961L58.7307 6.01313L57.4281 7.50102L57.0252 7.09243L58.3251 5.63133L56.6268 4.96812L56.8575 4.44991L58.5306 5.09435L58.7083 3.32565L59.2817 3.38325L59.1041 5.15195L60.8719 4.85308L60.9843 5.40574Z" fill="white"/>
<path d="M67.2102 13.2501C66.4455 13.0004 65.8853 12.57 65.5296 11.9589C65.1784 11.3455 65.1148 10.6958 65.3389 10.0096L66.1172 10.2638C65.9611 10.7417 66.0087 11.1917 66.26 11.6138C66.5123 12.0324 66.9099 12.3304 67.4527 12.5077C67.9647 12.6749 68.4287 12.6885 68.8446 12.5486C69.2617 12.4053 69.5343 12.1373 69.6625 11.7447C69.7294 11.5399 69.7476 11.3456 69.7169 11.1618C69.6897 10.9792 69.6217 10.8172 69.513 10.6759C69.4076 10.5357 69.2756 10.3963 69.1169 10.2575C68.9628 10.1165 68.7894 9.98811 68.5967 9.87231C68.4075 9.75762 68.2137 9.63388 68.0153 9.50108C67.8169 9.36828 67.6231 9.23886 67.4338 9.11282C67.2491 8.98448 67.0812 8.839 66.9303 8.67639C66.7829 8.51489 66.6603 8.34642 66.5627 8.17099C66.4686 7.99668 66.414 7.79373 66.3989 7.56216C66.3873 7.3317 66.4239 7.08675 66.5086 6.82731C66.6937 6.26065 67.0729 5.86882 67.6462 5.65185C68.224 5.43257 68.8611 5.43666 69.5575 5.6641C70.3051 5.90826 70.8327 6.30537 71.1404 6.85541C71.4492 7.40205 71.5038 7.98089 71.3043 8.59193L70.5004 8.32937C70.6149 7.92098 70.5603 7.53861 70.3367 7.18224C70.1176 6.82358 69.7691 6.5662 69.2912 6.41012C68.8133 6.25403 68.3879 6.23787 68.015 6.36165C67.6456 6.48654 67.4029 6.72649 67.2869 7.08151C67.22 7.28633 67.2115 7.48 67.2615 7.66254C67.3114 7.84507 67.4038 8.00747 67.5387 8.14974C67.677 8.29313 67.8425 8.43407 68.0352 8.57259C68.2291 8.70768 68.4361 8.84327 68.6561 8.97935C68.8772 9.11201 69.0949 9.24923 69.3093 9.39102C69.527 9.53392 69.7262 9.69341 69.9067 9.86947C70.0872 10.0455 70.2354 10.2337 70.3513 10.434C70.4717 10.632 70.5424 10.8667 70.5634 11.138C70.5854 11.4058 70.5463 11.6934 70.446 12.0006C70.2486 12.6048 69.8435 13.0241 69.2305 13.2583C68.621 13.4937 67.9475 13.4909 67.2102 13.2501Z" fill="white"/>
<path d="M77.0197 17.8735C76.421 17.49 75.9677 16.9927 75.6597 16.3817C75.3567 15.7696 75.2277 15.1155 75.2728 14.4193C75.3179 13.7232 75.5399 13.0637 75.939 12.4408C76.2354 11.9782 76.5985 11.5945 77.0282 11.2898C77.461 10.987 77.915 10.781 78.3902 10.6718C78.8673 10.5595 79.3596 10.5465 79.8673 10.6329C80.3768 10.7162 80.8554 10.9012 81.3029 11.1879C82.0226 11.649 82.5264 12.2639 82.8143 13.0327C83.1042 13.7984 83.1058 14.5415 82.8191 15.262L82.048 14.768C82.2127 14.238 82.184 13.7036 81.962 13.1647C81.745 12.6248 81.381 12.1911 80.8699 11.8638C80.4073 11.5674 79.9094 11.4126 79.3762 11.3994C78.8449 11.3832 78.3382 11.5085 77.8559 11.7753C77.3756 12.039 76.9785 12.4159 76.6647 12.9057C76.347 13.4016 76.1668 13.9259 76.1241 14.4785C76.0813 15.0312 76.1764 15.5484 76.4094 16.0303C76.6423 16.5122 76.9901 16.9013 77.4527 17.1977C77.9789 17.5348 78.5364 17.683 79.1254 17.6424C79.7174 17.6037 80.2239 17.3823 80.6449 16.9781L81.425 17.4779C80.852 18.0661 80.1562 18.3966 79.3377 18.4693C78.5242 18.5409 77.7515 18.3423 77.0197 17.8735Z" fill="white"/>
<path d="M87.5081 26.9804L86.8237 26.2412L87.7831 22.4092L86.7474 21.2907L84.3205 23.5377L83.7606 22.933L89.4286 17.685L91.3243 19.7325C91.761 20.2041 91.9741 20.7434 91.9634 21.3504C91.9579 21.9575 91.7271 22.4721 91.2713 22.8942C90.8444 23.2894 90.3738 23.5 89.8595 23.5259C89.3502 23.5521 88.8747 23.3953 88.4329 23.0556L87.5081 26.9804ZM89.4036 18.8314L87.3324 20.749L88.6535 22.1759C88.9414 22.4869 89.2781 22.6523 89.6636 22.6722C90.0491 22.6921 90.3947 22.5606 90.7004 22.2776C90.9955 22.0043 91.1453 21.6772 91.1498 21.2962C91.1567 20.9178 91.015 20.5718 90.7247 20.2583L89.4036 18.8314Z" fill="white"/>
<path d="M97.7122 28.724C98.1202 29.0511 98.4525 29.4535 98.7091 29.9313C98.9656 30.409 99.1176 30.9082 99.1649 31.429C99.2155 31.9481 99.1672 32.4428 99.0203 32.913C98.8765 33.3815 98.6371 33.8199 98.302 34.2281C97.9669 34.6364 97.5573 34.9705 97.0732 35.2304C96.4215 35.5804 95.746 35.7496 95.0468 35.7379C94.3475 35.7262 93.7019 35.541 93.1098 35.1823C92.5208 34.822 92.0556 34.3238 91.7141 33.6879C91.3726 33.052 91.2142 32.3891 91.239 31.6991C91.267 31.0074 91.4692 30.3668 91.8457 29.7775C92.2221 29.1881 92.7362 28.7184 93.3879 28.3683C93.8719 28.1084 94.3767 27.9515 94.9021 27.8975C95.4275 27.8436 95.9252 27.8861 96.3952 28.025C96.8684 28.1623 97.3074 28.3953 97.7122 28.724ZM98.3517 31.4745C98.3173 31.069 98.2008 30.6812 98.002 30.311C97.8032 29.9408 97.5434 29.6279 97.2226 29.3722C96.9036 29.1196 96.5569 28.9409 96.1827 28.8362C95.8117 28.7297 95.4164 28.6995 94.9967 28.7455C94.582 28.793 94.1816 28.9203 93.7957 29.1276C93.2768 29.4063 92.8651 29.7782 92.5606 30.2434C92.2561 30.7086 92.09 31.2115 92.0624 31.7521C92.0365 32.296 92.1561 32.8146 92.4212 33.3082C92.6862 33.8017 93.0517 34.1863 93.5177 34.4619C93.9853 34.7406 94.4972 34.8815 95.0532 34.8846C95.6092 34.8876 96.1466 34.7498 96.6654 34.4711C97.0514 34.2639 97.3779 33.9989 97.6448 33.6762C97.9166 33.3549 98.1106 33.0102 98.2267 32.6421C98.3461 32.2723 98.3877 31.8831 98.3517 31.4745Z" fill="white"/>
<path d="M102.592 39.4735L102.793 40.2728L96.0699 41.9642L97.0228 45.7515L96.2548 45.9446L95.101 41.3581L102.592 39.4735Z" fill="white"/>
<path d="M104.573 50.2058L104.599 51.0295L97.6694 51.2435L97.7899 55.147L96.9985 55.1714L96.8525 50.4442L104.573 50.2058Z" fill="white"/>
<path d="M101.953 70.3811C101.774 70.8777 101.514 71.3126 101.173 71.6859C100.834 72.0637 100.449 72.3541 100.017 72.557C99.588 72.7611 99.1161 72.8733 98.601 72.8935C98.0881 72.9184 97.5749 72.8381 97.0615 72.6528C96.5481 72.4675 96.0969 72.1996 95.708 71.8493C95.3212 71.5035 95.023 71.1133 94.8133 70.6788C94.607 70.2454 94.4892 69.7734 94.4597 69.2626C94.4325 68.7564 94.5084 68.2551 94.6877 67.7585L95.4997 65.5089L102.765 68.1315L101.953 70.3811ZM95.4178 68.0679C95.1374 68.8448 95.1809 69.5916 95.5483 70.3084C95.9179 71.0297 96.5198 71.541 97.3541 71.8421C98.1817 72.1409 98.9573 72.1288 99.6809 71.8058C100.403 71.4863 100.906 70.9346 101.189 70.151L101.736 68.6361L95.9647 66.553L95.4178 68.0679Z" fill="white"/>
<path d="M96.1096 81.8611C95.9987 82.3721 95.7866 82.8489 95.4733 83.2916C95.1601 83.7342 94.7809 84.0928 94.3358 84.3673C93.8937 84.6439 93.4294 84.8213 92.943 84.8994C92.4595 84.9795 91.9603 84.9606 91.4455 84.8426C90.9307 84.7247 90.449 84.507 90.0005 84.1896C89.3967 83.7622 88.9442 83.233 88.6429 82.6018C88.3417 81.9707 88.2196 81.3102 88.2767 80.6203C88.3368 79.9325 88.5753 79.294 88.9923 78.7048C89.4093 78.1156 89.9321 77.6783 90.5608 77.393C91.1925 77.1097 91.856 77.0051 92.5514 77.0793C93.2468 77.1535 93.8964 77.4043 94.5003 77.8317C94.9487 78.1491 95.3142 78.5309 95.5967 78.9772C95.8792 79.4235 96.063 79.888 96.1482 80.3706C96.2363 80.8553 96.2234 81.3521 96.1096 81.8611ZM93.9326 83.6596C94.2803 83.4481 94.5755 83.1709 94.8182 82.8279C95.0609 82.4849 95.2252 82.1129 95.3112 81.7118C95.395 81.3136 95.4004 80.9236 95.3274 80.542C95.2572 80.1624 95.1081 79.795 94.8798 79.44C94.6525 79.0899 94.36 78.7883 94.0024 78.5352C93.5216 78.1949 93.0052 77.9922 92.453 77.927C91.9008 77.8618 91.3766 77.9373 90.8804 78.1536C90.382 78.3729 89.9711 78.7112 89.6474 79.1684C89.3238 79.6257 89.1425 80.1243 89.1035 80.6643C89.0625 81.2071 89.1645 81.7281 89.4096 82.2271C89.6548 82.7262 90.0177 83.1458 90.4984 83.4861C90.856 83.7391 91.2388 83.9132 91.6466 84.0083C92.0554 84.1084 92.4504 84.1284 92.8317 84.0683C93.2159 84.0102 93.5829 83.874 93.9326 83.6596Z" fill="white"/>
<path d="M81.1153 97.0138L80.4104 97.5462L77.8221 89.8209L78.4023 89.3826L83.9401 93.2464L81.7421 86.8599L82.3223 86.4216L89.0628 91.0107L88.3493 91.5496L82.8072 87.6891L85.0052 94.0755L84.4164 94.5203L78.8935 90.6317L81.1153 97.0138Z" fill="white"/>
<path d="M74.2823 100.545L73.5477 100.81L67.3731 96.4484L69.4794 102.28L68.6891 102.565L66.0648 95.3001L66.7944 95.0366L72.9856 99.3809L70.8829 93.5598L71.658 93.2798L74.2823 100.545Z" fill="white"/>
<path d="M57.5759 102.959L59.2369 102.273L57.9413 100.829L58.3229 100.427L59.6472 101.884L60.6011 100.151L61.0821 100.464L60.1251 102.17L61.926 102.454L61.8116 103.01L60.0393 102.738L60.2444 104.504L59.6719 104.571L59.4668 102.805L57.8039 103.475L57.5759 102.959Z" fill="white"/>
</svg>
