<svg width="80" height="80" viewBox="0 0 80 80" fill="none" xmlns="http://www.w3.org/2000/svg">
<circle cx="40" cy="40" r="40" fill="#11215B"/>
<path d="M52.4217 36.9129C52.4217 29.4118 45.1972 23.3086 36.3167 23.3086C27.4359 23.3086 20.2114 29.4118 20.2114 36.9129C20.2114 40.2226 21.6319 43.4119 24.1755 45.8514C24.4908 46.3429 24.5325 48.9916 24.2635 51.519L24.0466 53.5541L25.7588 52.4338C27.7143 51.1534 30.2191 49.7823 30.9084 49.734C32.6395 50.2539 34.4587 50.5181 36.3167 50.5181C45.1972 50.5181 52.4217 44.4148 52.4217 36.9129ZM28.5998 38.5464C27.577 38.5512 26.7436 37.7244 26.7399 36.7017C26.7342 35.6789 27.5609 34.8456 28.5845 34.8399C29.6054 34.8352 30.4407 35.6629 30.4444 36.6846C30.4492 37.7093 29.6225 38.5417 28.5998 38.5464ZM36.365 38.5464C35.3422 38.5512 34.5099 37.7244 34.5051 36.7017C34.5004 35.6789 35.3271 34.8456 36.3498 34.8399C37.3726 34.8352 38.2059 35.6629 38.2097 36.6846C38.2145 37.7093 37.3886 38.5417 36.365 38.5464ZM43.7351 38.5464C42.7123 38.5512 41.8799 37.7244 41.8752 36.7017C41.8705 35.6789 42.6972 34.8456 43.7199 34.8399C44.7426 34.8352 45.576 35.6629 45.5798 36.6846C45.5846 37.7093 44.7588 38.5417 43.7351 38.5464Z" fill="white"/>
<path d="M59.452 40.2087C59.452 36.4037 57.5504 32.7484 54.2341 30.1792C53.8099 29.8525 53.2019 29.9283 52.8733 30.3525C52.7814 30.4709 52.7294 30.6035 52.7 30.7408C53.7928 32.7011 54.4216 34.881 54.4216 37.1879C54.4216 44.5468 48.2037 50.6993 39.9754 52.0999C39.8873 52.2231 39.8182 52.3604 39.7946 52.5204C39.7188 53.0507 40.0862 53.5421 40.6165 53.6188C43.3353 54.01 46.1724 53.8045 48.7539 53.0289C49.4433 53.0772 51.949 54.4484 53.9046 55.7287L55.6177 56.8499L55.3998 54.8139C55.13 52.2874 55.1707 49.6396 55.4529 49.1879C58.0305 46.7079 59.451 43.5184 59.452 40.2087Z" fill="white"/>
</svg>
